<svg width="137" height="138" viewBox="0 0 137 138" fill="none" xmlns="http://www.w3.org/2000/svg">
<path d="M68.4977 -4.84138e-05C30.6691 -4.84138e-05 0 30.7052 0 68.5816C0 106.458 30.6691 137.164 68.4977 137.164C106.329 137.164 137 106.458 137 68.5816C137 30.7052 106.329 -4.84138e-05 68.4977 -4.84138e-05Z" fill="#2A5258"/>
<path d="M117.368 91.922C117.368 87.2979 115.041 83.22 111.496 80.7935C113.613 78.6266 114.921 75.6659 114.921 72.3946C114.921 67.2677 111.71 62.904 107.198 61.1741C107.799 59.4891 108.142 57.6806 108.142 55.7898C108.142 46.909 100.953 39.7117 92.0844 39.7117C83.2135 39.7117 76.0256 46.909 76.0256 55.7898C76.0256 59.644 77.3805 63.1771 79.6397 65.9463L56.778 65.8461C58.9908 63.0926 60.3196 59.5983 60.3196 55.7898C60.3196 46.909 53.1287 39.7117 44.2616 39.7117C35.3922 39.7117 28.2029 46.909 28.2029 55.7898C28.2029 57.7958 28.5863 59.7068 29.2551 61.4808C25.1298 63.3821 22.2608 67.5483 22.2608 72.3946C22.2608 75.5768 23.5029 78.4605 25.5199 80.6102C21.8154 83.0105 19.3574 87.1745 19.3574 91.922C19.3574 96.3732 21.5247 100.307 24.8473 102.76C22.7877 104.917 21.515 107.838 21.515 111.06C21.515 117.698 26.8905 123.079 33.5217 123.079C35.0574 123.079 36.5185 122.78 37.8682 122.255L39.4988 127.119L96.1401 130.848L98.4359 122.321C99.7363 122.803 101.135 123.079 102.601 123.079C109.23 123.079 114.607 117.698 114.607 111.06C114.607 107.969 113.432 105.16 111.52 103.032C115.051 100.602 117.368 96.5334 117.368 91.922Z" fill="#341D06"/>
<path d="M106.323 118.979C100.264 115.182 82.5581 115.873 80.609 109.658C78.6615 103.445 80.609 91.7072 80.609 91.7072L68.636 87.6129L56.6607 91.7072C56.6607 91.7072 58.6097 103.445 56.6607 109.658C54.7124 115.873 37.008 115.182 30.9486 118.979C29.6393 119.801 28.3703 121.335 27.1738 123.276C38.6604 131.99 52.9748 137.164 68.4977 137.164C84.1073 137.164 98.492 131.932 110.011 123.134C108.839 121.259 107.602 119.782 106.323 118.979Z" fill="#B57C4B"/>
<path d="M56.6621 91.7073C56.6621 91.7073 57.3026 95.1768 57.4887 100.15C59.9205 102.925 68.4521 103.303 68.5649 103.301C68.677 103.303 77.2086 102.846 79.7906 100.037C79.9737 95.1282 80.6104 91.7073 80.6104 91.7073L68.7316 83.4692L56.6621 91.7073Z" fill="#8C5D3D"/>
<path d="M35.7505 56.3249C31.9996 57.4166 32.8657 63.0575 32.8657 65.1571C32.8613 67.2603 35.9993 74.691 38.1046 75.5059C43.4331 77.5777 43.4383 69.7976 43.4383 69.7976V60.7484C43.4383 60.7484 39.5043 55.2377 35.7505 56.3249Z" fill="#B57C4B"/>
<path d="M101.428 56.327C97.6753 55.2316 93.7383 60.7356 93.7383 60.7356V69.7945C93.7383 69.7945 93.7278 77.8155 99.0675 75.5087C101.133 74.6093 104.309 67.2527 104.314 65.1569C104.314 63.0604 105.184 57.4164 101.428 56.327Z" fill="#CA8C5E"/>
<path d="M86.5333 27.2986C81.6928 23.2619 75.0841 21.2424 68.4747 21.2424C61.8668 21.2424 55.2543 23.2619 50.4168 27.2986C40.3427 35.7065 40.0371 44.9547 40.0371 58.4072C40.0371 71.8582 40.9526 75.6629 40.9526 75.6629C40.9526 75.6629 43.3612 85.5807 45.447 88.1928C47.5314 90.8027 53.2791 94.5214 60.1606 98.4968C64.6297 101.079 68.1242 101.104 68.4747 101.058C68.8275 101.104 72.322 101.079 76.7896 98.4968C83.6718 94.5214 89.418 90.8027 91.5031 88.1928C93.5904 85.5807 95.9983 75.6629 95.9983 75.6629C95.9983 75.6629 96.9123 71.8582 96.9123 58.4072C96.9123 44.9547 96.6089 35.7065 86.5333 27.2986Z" fill="#B57C4B"/>
<path d="M86.5332 27.2986C81.6927 23.2619 75.084 21.2424 68.4746 21.2424V101.058C68.8274 101.104 72.3219 101.079 76.7894 98.4968C83.6717 94.5214 89.4179 90.8027 91.503 88.1928C93.5903 85.5807 95.9982 75.6629 95.9982 75.6629C95.9982 75.6629 96.9122 71.8582 96.9122 58.4072C96.9122 44.9547 96.6088 35.7065 86.5332 27.2986Z" fill="#CA8C5E"/>
<path d="M55.8588 60.1609C53.9741 60.1609 52.4473 61.6926 52.4473 63.5789C52.4473 65.4666 53.9741 66.999 55.8588 66.999C57.7459 66.999 59.2749 65.4666 59.2749 63.5789C59.2749 61.6926 57.7459 60.1609 55.8588 60.1609Z" fill="#683C11"/>
<path d="M81.828 53.9282C78.0174 53.8915 75.4869 56.6017 74.4653 57.9492C73.4496 59.2953 78.1347 57.1 81.5896 56.7281C86.7492 56.1684 91.3364 58.4722 91.3364 58.4722C91.3364 58.4722 87.22 53.9813 81.828 53.9282Z" fill="#683C11"/>
<path d="M81.0824 60.1609C79.1886 60.1609 77.6641 61.6926 77.6641 63.5789C77.6641 65.4666 79.1886 66.999 81.0824 66.999C82.9649 66.999 84.4932 65.4666 84.4932 63.5789C84.4932 61.6926 82.9649 60.1609 81.0824 60.1609Z" fill="#432918"/>
<path d="M55.8806 60.1326C53.9966 60.1326 52.4668 61.6605 52.4668 63.5483C52.4668 65.4376 53.9966 66.9684 55.8806 66.9684C57.7662 66.9684 59.2937 65.4376 59.2937 63.5483C59.2937 61.6605 57.7662 60.1326 55.8806 60.1326Z" fill="#432918"/>
<path d="M82.128 61.7757L81.918 64.7507C81.918 64.7507 84.8094 64.5861 85.8265 63.9037C86.8459 63.222 86.958 61.2392 86.4789 60.7341C84.3834 62.3114 82.128 61.7757 82.128 61.7757Z" fill="#432918"/>
<path d="M55.1246 53.8991C49.7304 53.9522 45.6133 58.4446 45.6133 58.4446C45.6133 58.4446 50.2012 56.1378 55.3623 56.6982C58.8135 57.0715 63.503 59.2646 62.4829 57.9193C61.4643 56.5717 58.9315 53.8594 55.1246 53.8991Z" fill="#683C11"/>
<path d="M50.4729 60.7064C49.9931 61.2092 50.1044 63.1913 51.1253 63.8737C52.1409 64.5553 55.0294 64.7237 55.0294 64.7237L54.8239 61.745C54.8239 61.745 52.5669 62.2837 50.4729 60.7064Z" fill="#432918"/>
<path d="M68.6403 83.1639L63.6758 83.0973L60.0781 83.0038L60.0953 83.3539L64.3447 86.7898L73.4188 86.1957L77.3386 83.3562L74.2222 83.018L68.6403 83.1639Z" fill="white"/>
<path d="M68.5312 83.3712L62.3919 83.0862L61.8762 83.2583C61.8762 83.2583 61.6139 85.2561 68.7808 85.2104C76.0771 85.1663 75.2513 83.3084 75.2513 83.3084L68.5312 83.3712Z" fill="white"/>
<path d="M68.9963 82.1949C68.3872 82.2615 67.8648 81.6652 66.3328 81.7161C64.4106 81.7812 59.4199 82.774 59.4199 82.774C59.4199 82.774 60.7016 83.9817 68.7803 84.0288C77.5174 84.082 77.9322 82.9881 77.9322 82.9881C77.9322 82.9881 73.4392 81.6592 71.8511 81.7078C70.2675 81.7662 69.7092 82.1171 68.9963 82.1949Z" fill="#9B0707"/>
<path d="M68.7474 86.3581C63.7724 86.397 60.4311 83.125 60.4311 83.125L59.4199 82.7741C59.4199 82.7741 62.3435 89.3638 68.7489 89.3099C76.0108 89.2456 77.9322 82.9881 77.9322 82.9881L76.9749 83.3068C76.9749 83.3068 74.41 86.314 68.7474 86.3581Z" fill="#8D0134"/>
<path d="M50.5778 68.9931C47.8351 68.9931 45.6133 70.5165 45.6133 72.3945C45.6133 74.2718 47.8351 75.7952 50.5778 75.7952C53.3198 75.7952 55.5439 74.2718 55.5439 72.3945C55.5439 70.5165 53.3198 68.9931 50.5778 68.9931Z" fill="#B56D3C"/>
<path d="M86.7825 68.9931C84.0405 68.9931 81.8164 70.5165 81.8164 72.3945C81.8164 74.2718 84.0405 75.7952 86.7825 75.7952C89.5252 75.7952 91.7478 74.2718 91.7478 72.3945C91.7478 70.5165 89.5252 68.9931 86.7825 68.9931Z" fill="#B56D3C"/>
<path d="M53.1348 114.143C53.2372 113.948 53.3268 113.743 53.3956 113.521C53.4823 113.251 53.353 113.571 53.1348 114.143Z" fill="#575756"/>
<path d="M53.1332 114.143C50.3837 119.47 36.425 115.056 30.5091 118.763C29.2139 119.573 27.9614 121.071 26.7754 122.97C35.7098 129.851 46.384 134.579 58.0282 136.367L51.5892 118.299C51.5892 118.299 52.619 115.499 53.1332 114.143Z" fill="#575756"/>
<path d="M106.907 118.763C100.775 114.919 86.9033 114.68 84.2974 111.866C83.6278 111.146 84.6897 118.299 84.6897 118.299L79.2559 136.318C90.9113 134.479 101.587 129.696 110.509 122.753C109.361 120.955 108.154 119.542 106.907 118.763Z" fill="#3C3C3B"/>
<path d="M73.4063 128.843L68.4642 131.369L63.5833 128.847L40.6543 128.837L40.5176 131.197C49.0626 135.03 58.5313 137.164 68.4963 137.164C78.5009 137.164 88.0003 135.015 96.5692 131.157L96.4713 128.855L73.4063 128.843Z" fill="#59B6C6"/>
<path d="M32.2871 117.871L34.7257 128.257C42.3343 132.582 50.8487 135.493 59.9131 136.627L53.2229 111.853L32.2871 117.871Z" fill="#575756"/>
<path d="M48.8479 111.852L45.0059 127.696L51.2199 133.795L51.0862 134.924C53.9754 135.682 56.9393 136.256 59.9645 136.633L52.9172 110.542L48.8479 111.852Z" fill="#3C3C3B"/>
<path d="M106.612 118.586L83.6408 111.866L76.9297 136.646C86.4903 135.47 95.4404 132.321 103.364 127.619L106.612 118.586Z" fill="#3C3C3B"/>
<path d="M91.8477 127.706L88.0199 111.867L83.9529 110.038L76.8809 136.651C80.0533 136.265 83.1585 135.658 86.1844 134.851L85.6351 133.805L91.8477 127.706Z" fill="#575756"/>
<path d="M68.4736 18.5562C62.6227 13.7062 46.1275 17.9838 39.7931 30.1711C33.4594 42.359 40.7437 63.5415 40.7437 63.5415C40.7437 63.5415 41.0628 60.1947 42.7406 55.1576C44.0962 54.6488 45.8315 52.6772 47.0153 51.2615C48.6931 49.2563 49.0077 45.7889 49.0077 45.7889C49.0077 45.7889 55.3496 43.8009 59.2926 42.0575C63.3304 40.2767 68.4736 33.9773 68.4736 33.9773C68.4736 33.9773 72.6033 38.9508 76.2047 41.1858C79.8077 43.4275 88.1606 45.9146 88.1606 45.9146C88.1606 45.9146 88.8205 50.2005 90.6747 52.0696C92.6065 54.015 94.5907 55.2616 94.5907 55.2616C95.9015 60.4536 96.0786 61.8924 96.0786 63.5415C100.326 55.3334 101.067 32.8063 93.7395 24.9723C86.4111 17.1383 74.3252 13.7062 68.4736 18.5562Z" fill="#341D06"/>
</svg>
