<svg width="447" height="447" viewBox="0 0 447 447" fill="none" xmlns="http://www.w3.org/2000/svg">
<path d="M227.957 73.4123V266.779H87.4873V114.296C87.4873 104.136 87.4863 106.26 87.4863 96.3507C87.4877 89.2727 87.4876 73.4123 87.4876 73.4123C87.4876 73.4123 102.213 73.4123 114.245 73.4123C121.323 73.4123 130.997 73.4123 130.997 73.4123H227.957Z" fill="#FCEFE6"/>
<path d="M216.788 85.1696V254.436H98.6621V85.1696C110.708 85.1696 106.462 85.1696 115.028 85.1696H216.788Z" fill="#A9E2E4"/>
<path d="M223.258 166.867H158.607V79.2937H153.903V166.867H91.0156V173.334H153.903V260.908H158.607V173.334H223.258V166.867Z" fill="#FCEFE6"/>
<path d="M319.789 109.997L294.22 118.234L289.178 101.779C283.722 105.301 277.576 107.736 273.656 108.236C270.308 108.668 266.354 103.349 262.935 97.1171C262.858 96.9793 263.645 96.1035 263.571 95.9657C263.498 95.8261 262.565 96.4282 262.486 96.2885C262.037 95.4429 261.59 94.5973 261.157 93.7329L252.715 95.1485L258.602 88.365C257.116 85.0676 255.925 82.1836 255.235 80.5434C255.201 80.4396 255.167 80.3528 255.114 80.249C254.751 79.3694 254.561 78.8523 254.561 78.8523L254.58 78.7994C253.577 75.9342 253.007 72.8766 253.007 69.6661C253.007 54.4212 265.387 42.0433 280.632 42.0433C295.894 42.0433 308.257 54.4212 308.257 69.6661C308.257 71.3761 308.083 73.0332 307.791 74.6546L319.789 109.997Z" fill="#F25954"/>
<path d="M265.096 82.591C265.547 84.1406 265.086 85.6373 264.063 85.9375C263.04 86.2357 261.846 85.2221 261.393 83.6744C260.94 82.1248 261.402 80.63 262.425 80.3299C263.446 80.0316 264.643 81.0433 265.096 82.591Z" fill="#30223E"/>
<path d="M266.805 92.3174C265.665 94.7012 264.37 96.3056 262.938 97.1172C262.781 96.8416 262.643 96.5641 262.488 96.2886C264.025 95.3901 265.182 93.5254 265.959 91.904C266.08 91.6794 266.356 91.5756 266.597 91.6964C266.822 91.8002 266.926 92.0928 266.805 92.3174Z" fill="#30223E"/>
<path d="M259.092 77.6895C258.982 77.6895 258.871 77.6537 258.782 77.5744C258.588 77.4027 258.569 77.1063 258.739 76.9119C259.753 75.7549 261.561 75.3887 262.944 76.0588C263.178 76.172 263.276 76.4533 263.163 76.6873C263.05 76.9213 262.765 77.0176 262.536 76.9043C261.517 76.4136 260.19 76.6816 259.445 77.5291C259.354 77.6367 259.224 77.6895 259.092 77.6895Z" fill="#30223E"/>
<path d="M329.271 63.7208C324.299 63.7208 319.788 65.6572 316.415 68.7998C317.395 58.9775 317.219 40.8486 302.014 34.9202C291.746 30.9169 246.18 53.4342 246.18 53.4342C246.18 53.4342 246.18 62.3976 261.313 67.5391C276.449 72.6823 281.445 72.8295 281.445 72.8295L284.087 81.9402L286.586 74.4452L300.104 89.0295L314.571 94.4352C318.031 98.7291 323.327 101.483 329.271 101.483C339.699 101.483 348.153 93.029 348.153 82.6008C348.153 72.1727 339.699 63.7208 329.271 63.7208Z" fill="#30223E"/>
<path d="M290.721 67.7615C293.816 65.4928 298.678 65.4891 301.17 68.4089C302.576 70.0567 303.053 72.3254 303.035 74.4922C303.004 78.0028 301.772 81.4927 299.59 84.2428C298.059 86.1717 295.992 87.7779 293.582 88.2781C291.172 88.7802 288.416 87.9969 286.987 85.9924C285.279 83.5973 285.645 79.7091 285.949 76.9025C286.325 73.4465 287.861 69.8604 290.721 67.7615Z" fill="#F25954"/>
<path d="M291.731 118.968C291.731 118.968 292.025 110.739 305.543 106.331C319.061 101.922 326.702 110.152 326.702 110.152C326.702 110.152 341.101 123.962 346.391 134.249C351.68 144.533 352.561 196.255 352.269 202.721C351.974 209.186 353.445 238.573 353.445 238.573L273.657 240.778L267.045 192.435L250.883 188.615C250.883 188.615 264.988 124.845 291.731 118.968Z" fill="#FCEFE6"/>
<path d="M363.142 280.005C362.693 295.873 348.586 328.935 348.586 328.935V403.532L328 416.981L311.721 425.474L300.396 430.429L291.195 433.968L280.578 436.799L276.331 438.214L260.76 441.753L266.112 337.653L266.216 335.547L269.323 273.635L271.448 231.076H272.328L300.504 231.111L307.497 231.127L307.878 232.837L308.791 231.127L353.094 231.197H353.231C353.231 231.197 363.591 264.139 363.142 280.005Z" fill="#A9E2E4"/>
<path d="M309.599 230.831L309.236 241.109L302.615 429.013H301.105L307.726 241.151L308.09 230.831H309.599Z" fill="#30223E"/>
<path d="M252.664 343.247C249.557 349.584 244.55 353.881 239.284 354.71C236.107 355.212 232.551 354.123 230.013 351.845C227.993 350.033 226.957 347.736 227.078 345.371C227.25 341.849 229.684 339.018 231.706 337.24C236.141 333.353 242.168 331.37 248.33 331.37C250.852 331.37 253.389 331.696 255.858 332.37C255.391 336.151 254.34 339.846 252.664 343.247ZM280.859 361.531C279.511 350.965 274.022 341.332 266.218 335.547C265.198 334.788 264.145 334.08 263.041 333.457C261.331 332.491 259.553 331.713 257.705 331.126C258.396 322.754 256.326 314.035 251.611 306.818C246.777 299.412 239.25 293.696 230.687 290.624C226.957 289.276 223.039 288.447 219.05 288.189C218.582 288.172 218.169 288.517 218.135 289C218.101 289.467 218.462 289.882 218.947 289.916C221.899 290.105 224.798 290.624 227.614 291.435C236.849 294.11 245.069 299.946 250.161 307.767C254.599 314.57 256.584 322.737 256.014 330.626C247.036 328.278 237.177 330.16 230.566 335.945C228.303 337.929 225.558 341.158 225.351 345.284C225.196 348.168 226.457 350.965 228.873 353.14C231.774 355.746 235.866 357.007 239.561 356.42C245.465 355.488 250.799 350.965 254.217 344.006C255.927 340.518 257.033 336.738 257.534 332.87C259.14 333.423 260.693 334.114 262.194 334.96C263.558 335.737 264.87 336.634 266.114 337.653C273.054 343.23 277.907 352.069 279.149 361.739C280.03 368.522 279.235 375.498 278.494 382.248C278.252 384.407 278.009 386.547 277.82 388.688C277.561 391.726 280.441 433.311 280.579 436.799L281.994 436.091C281.857 432.673 279.288 391.83 279.547 388.844C279.736 386.721 279.96 384.579 280.202 382.455C280.962 375.583 281.757 368.505 280.859 361.531Z" fill="#30223E"/>
<path d="M141.599 331.247L136.904 333.389L132.483 335.426L121.279 340.554V341.59L121.434 398.582L99 387.5L100.716 298.962L123.644 291.918L121.813 321.666L121.796 321.891L126.613 319.369L129.773 317.712L135.263 314.845L141.599 331.247Z" fill="#A9E2E4"/>
<path d="M112.547 343.693C112.004 343.693 111.453 343.666 110.892 343.61C109.663 343.483 108.606 343.064 107.836 342.4C106.449 341.203 105.675 339.591 105.602 337.74C105.498 335.192 106.768 332.193 108.835 330.096C111.413 327.482 114.652 325.675 117.785 323.928L119.301 323.076C122.574 321.219 125.918 319.424 129.24 317.742C129.561 317.58 129.948 317.71 130.11 318.027C130.272 318.348 130.144 318.737 129.825 318.898C126.52 320.57 123.194 322.355 119.939 324.203L118.416 325.058C115.362 326.761 112.206 328.522 109.756 331.005C107.929 332.857 106.806 335.481 106.895 337.687C106.955 339.193 107.557 340.448 108.682 341.419C109.401 342.039 110.352 342.251 111.024 342.321C116.034 342.84 120.209 340.771 124.635 338.582L136.016 333.042C136.341 332.885 136.726 333.021 136.882 333.34C137.037 333.663 136.905 334.05 136.582 334.207L125.208 339.744C121.271 341.688 117.215 343.693 112.547 343.693Z" fill="#30223E"/>
<path d="M139.799 313.805L205.038 282.655L212.09 296.76L143.912 328.499L139.799 313.805Z" fill="#30223E"/>
<path d="M140.533 311.967L146.926 331.583L133.259 337.534L125.986 317.699L140.533 311.967Z" fill="#FCEFE6"/>
<path d="M263.812 191.848L303.486 201.84C303.486 201.84 299.077 253.562 295.551 257.969C292.025 262.376 246.474 285.593 246.474 285.593L229.723 256.793L259.699 235.929L263.812 191.848Z" fill="#F25954"/>
<path d="M235.601 247.682L252.939 284.71L219.732 293.526C219.732 293.526 212.973 302.931 210.621 303.518C208.271 304.105 204.67 304.474 204.67 304.474C204.67 304.474 202.686 306.163 199.455 308.222C196.222 310.277 192.547 309.836 192.547 309.836C192.547 309.836 178.589 314.981 178 312.922C177.413 310.864 182.409 309.69 187.7 303.226C192.988 296.76 195.267 288.311 195.267 288.311L181.454 293.821C181.454 293.821 188.874 278.246 192.696 276.775C196.516 275.307 206.801 269.429 206.801 269.429L235.601 247.682Z" fill="#FAB44B"/>
<path d="M179.837 314.045C177.84 314.045 177.24 313.396 177.07 313.094C176.894 312.784 177.004 312.388 177.315 312.212C177.608 312.046 177.972 312.135 178.163 312.401C178.261 312.488 179.565 313.49 185.599 311.642C192.056 309.666 193.847 307.563 195.289 305.874L195.661 305.442C197.164 303.726 202.252 296.461 202.303 296.388C202.507 296.095 202.911 296.023 203.204 296.229C203.498 296.435 203.568 296.839 203.364 297.131C203.153 297.433 198.183 304.526 196.635 306.297L196.275 306.716C194.806 308.437 192.796 310.793 185.979 312.88C183.119 313.756 181.168 314.045 179.837 314.045Z" fill="#30223E"/>
<path d="M193.658 310.508C192.954 310.508 192.56 310.398 192.513 310.385C192.171 310.283 191.975 309.923 192.075 309.579C192.177 309.241 192.53 309.045 192.875 309.14C192.932 309.158 195.959 309.894 201.057 306.155C206.374 302.258 210.438 293.776 210.478 293.691C210.634 293.368 211.019 293.232 211.342 293.383C211.663 293.536 211.803 293.923 211.65 294.246C211.478 294.606 207.401 303.109 201.824 307.201C197.964 310.03 195.133 310.508 193.658 310.508Z" fill="#30223E"/>
<path d="M206.594 305.166C205.737 305.166 205.171 305.044 205.116 305.032C204.767 304.953 204.55 304.606 204.627 304.258C204.704 303.911 205.054 303.692 205.401 303.77C205.429 303.777 208.392 304.4 211.041 302.413C212.728 301.148 214.919 298.288 216.68 295.991C217.935 294.351 219.019 292.938 219.747 292.303C220.017 292.069 220.427 292.098 220.661 292.368C220.897 292.637 220.867 293.045 220.599 293.281C219.968 293.828 218.87 295.261 217.709 296.778C215.804 299.262 213.647 302.077 211.818 303.449C209.916 304.878 207.911 305.166 206.594 305.166Z" fill="#30223E"/>
<path d="M317.885 142.537C317.585 142.537 317.315 142.329 317.253 142.023C312.149 117.928 292.62 119.534 291.795 119.612C291.435 119.657 291.123 119.385 291.087 119.03C291.051 118.674 291.312 118.357 291.669 118.323C291.874 118.296 313.17 116.499 318.519 141.755C318.593 142.104 318.37 142.448 318.019 142.521C317.974 142.533 317.929 142.537 317.885 142.537Z" fill="#30223E"/>
<path d="M309.95 204.837C309.895 204.837 309.841 204.829 309.786 204.816L250.716 189.241C250.371 189.15 250.165 188.796 250.256 188.448C250.348 188.105 250.703 187.903 251.048 187.988L309.467 203.393L316.371 172.896C316.45 172.548 316.79 172.328 317.147 172.407C317.494 172.486 317.713 172.833 317.634 173.183L310.582 204.333C310.543 204.505 310.435 204.652 310.286 204.743C310.184 204.805 310.067 204.837 309.95 204.837Z" fill="#30223E"/>
<path d="M89.0693 259.898H75.961L81.4233 252.329C81.6818 251.971 81.6025 251.472 81.2439 251.214C80.8853 250.953 80.387 251.036 80.1284 251.395L75.4589 257.865V239.083C75.4589 238.642 75.1003 238.285 74.6586 238.285C74.2189 238.285 73.8621 238.642 73.8621 239.083V258.798L67.9091 252.275C67.6128 251.948 67.107 251.927 66.7804 252.222C66.4558 252.52 66.4331 253.024 66.7295 253.35L72.7032 259.898H59.9781C59.5383 259.898 59.1797 260.255 59.1797 260.696C59.1797 261.138 59.5383 261.495 59.9781 261.495H72.8392L67.0806 269.475C66.822 269.832 66.9031 270.33 67.2599 270.588C67.4014 270.69 67.5656 270.739 67.726 270.739C67.9733 270.739 68.2187 270.626 68.3753 270.407L73.8621 262.806V285.029C73.8621 285.471 74.2189 285.83 74.6586 285.83C75.1003 285.83 75.4589 285.471 75.4589 285.029V262.92L80.8683 268.848C81.025 269.02 81.2402 269.109 81.4572 269.109C81.6497 269.109 81.8422 269.039 81.9951 268.901C82.3216 268.601 82.3443 268.097 82.048 267.77L76.3215 261.495H89.0693C89.511 261.495 89.8677 261.138 89.8677 260.696C89.8677 260.255 89.511 259.898 89.0693 259.898Z" fill="white"/>
<path d="M265.983 125.304H252.873L258.337 117.733C258.596 117.377 258.515 116.878 258.156 116.62C257.799 116.361 257.299 116.442 257.043 116.801L252.371 123.271V104.489C252.371 104.048 252.014 103.691 251.573 103.691C251.131 103.691 250.774 104.048 250.774 104.489V124.206L244.821 117.681C244.525 117.354 244.019 117.333 243.694 117.63C243.368 117.926 243.345 118.432 243.644 118.756L249.615 125.304H236.892C236.45 125.304 236.094 125.661 236.094 126.102C236.094 126.544 236.45 126.903 236.892 126.903H249.751L243.993 134.881C243.734 135.238 243.815 135.736 244.174 135.995C244.314 136.096 244.478 136.145 244.64 136.145C244.887 136.145 245.131 136.032 245.287 135.815L250.774 128.213V150.435C250.774 150.877 251.131 151.236 251.573 151.236C252.014 151.236 252.371 150.877 252.371 150.435V128.324L257.78 134.252C257.937 134.426 258.152 134.515 258.369 134.515C258.562 134.515 258.754 134.447 258.907 134.307C259.234 134.009 259.256 133.503 258.96 133.178L253.234 126.903H265.983C266.425 126.903 266.782 126.544 266.782 126.102C266.782 125.661 266.425 125.304 265.983 125.304Z" fill="white"/>
<path d="M374.823 347.925H361.713L367.177 340.354C367.436 339.995 367.355 339.497 366.998 339.24C366.639 338.98 366.141 339.061 365.882 339.42L361.211 345.892V327.108C361.211 326.666 360.854 326.311 360.412 326.311C359.973 326.311 359.614 326.666 359.614 327.108V346.824L353.663 340.301C353.367 339.973 352.861 339.954 352.534 340.248C352.208 340.545 352.185 341.05 352.483 341.377L358.455 347.925H345.732C345.29 347.925 344.934 348.281 344.934 348.723C344.934 349.163 345.29 349.521 345.732 349.521H358.591L352.832 357.5C352.576 357.856 352.655 358.356 353.014 358.615C353.155 358.715 353.318 358.766 353.48 358.766C353.727 358.766 353.971 358.651 354.127 358.434L359.614 350.833V373.056C359.614 373.498 359.973 373.854 360.412 373.854C360.854 373.854 361.211 373.498 361.211 373.056V350.944L366.62 356.873C366.779 357.047 366.994 357.133 367.211 357.133C367.404 357.133 367.596 357.065 367.749 356.926C368.074 356.628 368.098 356.124 367.8 355.797L362.075 349.521H374.823C375.265 349.521 375.622 349.163 375.622 348.723C375.622 348.281 375.265 347.925 374.823 347.925Z" fill="white"/>
<path d="M367.843 173.981C362.692 173.981 358.5 178.173 358.5 183.326C358.5 188.479 362.692 192.669 367.843 192.669C372.995 192.669 377.187 188.479 377.187 183.326C377.187 178.173 372.995 173.981 367.843 173.981ZM367.843 193.964C361.978 193.964 357.205 189.192 357.205 183.326C357.205 177.458 361.978 172.687 367.843 172.687C373.711 172.687 378.482 177.458 378.482 183.326C378.482 189.192 373.711 193.964 367.843 193.964Z" fill="#FCEFE6"/>
<path d="M168.893 342.664C163.578 342.664 159.256 346.988 159.256 352.301C159.256 357.617 163.578 361.939 168.893 361.939C174.208 361.939 178.53 357.617 178.53 352.301C178.53 346.988 174.208 342.664 168.893 342.664ZM168.893 363.234C162.865 363.234 157.961 358.33 157.961 352.301C157.961 346.273 162.865 341.369 168.893 341.369C174.922 341.369 179.825 346.273 179.825 352.301C179.825 358.33 174.922 363.234 168.893 363.234Z" fill="#FCEFE6"/>
<path d="M76.9098 329.731C73.3784 329.731 70.5057 332.606 70.5057 336.139C70.5057 339.671 73.3784 342.545 76.9098 342.545C80.4431 342.545 83.3159 339.671 83.3159 336.139C83.3159 332.606 80.4431 329.731 76.9098 329.731ZM76.9098 343.84C72.6631 343.84 69.2109 340.386 69.2109 336.139C69.2109 331.893 72.6631 328.437 76.9098 328.437C81.1566 328.437 84.6106 331.893 84.6106 336.139C84.6106 340.386 81.1566 343.84 76.9098 343.84Z" fill="#FCEFE6"/>
<path d="M149.79 279.188C145.285 279.188 141.621 282.853 141.621 287.356C141.621 291.86 145.285 295.525 149.79 295.525C154.293 295.525 157.959 291.86 157.959 287.356C157.959 282.853 154.293 279.188 149.79 279.188ZM149.79 296.82C144.571 296.82 140.326 292.573 140.326 287.356C140.326 282.138 144.571 277.893 149.79 277.893C155.007 277.893 159.253 282.138 159.253 287.356C159.253 292.573 155.007 296.82 149.79 296.82Z" fill="#FCEFE6"/>
<path d="M217.968 54.0814C215.082 54.0814 212.738 56.4274 212.738 59.3115C212.738 62.1936 215.082 64.5416 217.968 64.5416C220.852 64.5416 223.196 62.1936 223.196 59.3115C223.196 56.4274 220.852 54.0814 217.968 54.0814ZM217.968 65.8364C214.369 65.8364 211.443 62.9089 211.443 59.3115C211.443 55.714 214.369 52.7866 217.968 52.7866C221.566 52.7866 224.493 55.714 224.493 59.3115C224.493 62.9089 221.566 65.8364 217.968 65.8364Z" fill="#FCEFE6"/>
<path d="M363.728 264.494C358.251 264.494 353.797 268.948 353.797 274.425C353.797 279.903 358.251 284.357 363.728 284.357C369.206 284.357 373.66 279.903 373.66 274.425C373.66 268.948 369.206 264.494 363.728 264.494ZM363.728 285.652C357.538 285.652 352.502 280.616 352.502 274.425C352.502 268.235 357.538 263.199 363.728 263.199C369.919 263.199 374.955 268.235 374.955 274.425C374.955 280.616 369.919 285.652 363.728 285.652Z" fill="#FCEFE6"/>
<circle cx="223.5" cy="223.5" r="218.5" stroke="white" stroke-width="10"/>
</svg>
