<svg width="449" height="450" viewBox="0 0 449 450" fill="none" xmlns="http://www.w3.org/2000/svg">
<path d="M440.855 225C440.855 345.148 343.819 442.5 224.177 442.5C104.536 442.5 7.5 345.148 7.5 225C7.5 104.852 104.536 7.5 224.177 7.5C343.819 7.5 440.855 104.852 440.855 225Z" fill="#6365B9" stroke="white" stroke-width="15"/>
<path d="M230.572 116.472V99.2028H268.643V117.084L230.572 116.472Z" fill="#FCEFE6"/>
<path d="M266.248 86.646L284.302 77.3424L287.65 95.8051L266.248 86.646ZM314.328 110.747L296.346 71.1285L299.405 69.5475L298.063 66.3151L311.734 59.4552L302.143 39.4304L289.242 45.0343L288.133 42.3397L232.089 65.0591L231.294 67.8297L230.746 65.5779L210.492 73.4449C208.612 74.1632 207.663 76.2649 208.326 78.1518C208.953 79.8925 210.725 80.8996 212.531 80.5576L230.998 76.9489L231.542 75.5295L232.341 76.6773L232.625 76.624L235.756 100.888L266.051 100.115L266.142 92.1415L288.186 96.3449L311.68 112.957C313.166 114.015 315.099 112.417 314.328 110.747Z" fill="#FCEFE6"/>
<path d="M282.939 55.9324C280.192 55.9324 277.956 58.1746 277.956 60.9319C277.956 63.6892 280.192 65.9334 282.939 65.9334C285.686 65.9334 287.922 63.6892 287.922 60.9319C287.922 58.1746 285.686 55.9324 282.939 55.9324ZM282.939 67.2807C279.451 67.2807 276.613 64.4341 276.613 60.9319C276.613 57.4316 279.451 54.5851 282.939 54.5851C286.426 54.5851 289.264 57.4316 289.264 60.9319C289.264 64.4341 286.426 67.2807 282.939 67.2807Z" fill="#30223E"/>
<path d="M232.34 76.6773L232.088 65.0591L231.784 65.1845L230.746 65.5779L230.998 76.9489L232.34 76.6773Z" fill="#30223E"/>
<path d="M245.094 75.2483C246.376 73.9219 247.853 73.2872 249.627 73.3556C259.756 73.6578 260.561 95.7349 260.621 98.5282H240.374C240.304 97.162 239.606 80.93 245.094 75.2483ZM299.714 70.148C300.027 69.9864 300.161 69.614 300.028 69.291L288.758 42.0831C288.616 41.7392 288.224 41.5796 287.881 41.7203C287.538 41.8628 287.375 42.258 287.519 42.6001L298.55 69.234L265.949 86.0455C265.733 86.1557 265.593 86.3762 265.585 86.6213L265.201 98.5282H261.965C261.92 95.5695 261.191 72.3542 249.667 72.0083C247.546 71.9646 245.668 72.721 244.131 74.3096C238.273 80.3752 238.926 96.5349 239.028 98.5282H230.574C230.203 98.5282 229.902 98.8285 229.902 99.2009C229.902 99.5734 230.203 99.8736 230.574 99.8736H268.645C269.016 99.8736 269.317 99.5734 269.317 99.2009C269.317 98.8285 269.016 98.5282 268.645 98.5282H266.543L266.915 87.0621L299.714 70.148Z" fill="#30223E"/>
<path d="M227.375 112.957H270.928C270.928 112.957 291.639 162.021 298.644 218.269C305.65 274.516 287.68 333.057 287.68 333.057H210.013C210.013 333.057 190.825 252.202 197.678 211.392C204.53 170.58 227.375 112.957 227.375 112.957Z" fill="#F25954"/>
<path d="M230.162 122.223C231.965 122.418 233.258 124.624 232.968 127.006L231.596 138.253C231.323 140.495 229.742 142.023 228.059 141.674L226.139 141.273C224.166 140.862 222.994 138.107 223.744 135.638L227.037 124.792C227.546 123.116 228.811 122.076 230.162 122.223Z" fill="#FCEFE6"/>
<path d="M228.005 150.863C228.005 153.396 226.466 155.45 224.567 155.45C222.668 155.45 221.129 153.396 221.129 150.863C221.129 148.33 222.668 146.278 224.567 146.278C226.466 146.278 228.005 148.33 228.005 150.863Z" fill="#FCEFE6"/>
<path d="M215.836 297.616H282.762C283.179 293.53 285.013 274.131 285.415 247.145C285.835 218.888 277.611 174.472 276.433 168.269H221.196C207.399 216.981 214.902 289.262 215.836 297.616ZM283.569 299.412H215.039C214.586 299.412 214.206 299.073 214.151 298.623C214.054 297.832 204.707 218.972 219.662 167.122C219.772 166.738 220.122 166.474 220.522 166.474H277.171C277.599 166.474 277.968 166.776 278.05 167.198C278.146 167.69 287.656 216.707 287.204 247.172C286.751 277.583 284.481 298.406 284.459 298.613C284.408 299.07 284.025 299.412 283.569 299.412Z" fill="#30223E"/>
<path d="M342.772 127.061L316.252 133.759L342.323 129.898L338.997 149.94L314.266 150.103L338.531 152.76L335.81 169.282L311.135 162.692L335.399 171.886L332.858 187.152L309.703 177.024L309.435 176.899L309.703 177.06L332.215 191.067L331.266 196.851L309.257 183.506L306.64 175.739L303.529 166.193L307.252 123.756L312.96 122.912L313.532 122.821L344.239 118.242L342.772 127.061Z" fill="#FAB44B"/>
<path d="M313.531 122.821L309.702 177.024V177.06L309.256 183.506L302.383 179.34L303.528 166.193L312.959 122.912L313.531 122.821Z" fill="#30223E"/>
<path d="M295.514 125.776L289.921 178.056L241.627 243.837L256.845 254.205L303.678 180.412L313.665 120.927L307.912 118.47C302.383 116.111 296.156 119.781 295.514 125.776Z" fill="#FCEFE6"/>
<path d="M262.905 247.563L257.668 257.781L256.385 257.705L257.197 258.712L228.072 315.473L199.26 291.619L237.281 244.912L238.453 245.38L237.94 244.088L244.958 235.483L246.829 236.745L261.61 246.687L262.905 247.563Z" fill="#F4B5DE"/>
<path d="M257.668 257.781L257.197 258.712C250.067 254.925 243.327 250.246 237.281 244.912L237.94 244.088C243.921 249.401 250.58 254.035 257.668 257.781Z" fill="#30223E"/>
<path d="M154.565 107.503L107.505 117.147L105.215 98.5758L110.009 96.9606L112.837 94.0152L109.849 91.1763L109.098 64.8654L134.006 60.2858L144.061 90.3155L149.985 90.9977L154.565 107.503Z" fill="#FCEFE6"/>
<path d="M111.388 116.356L109.69 116.698L107.184 98.2356C107.166 98.0912 107.255 97.9658 107.399 97.9487C107.524 97.9297 107.649 98.019 107.686 98.1444L111.388 116.356Z" fill="#30223E"/>
<path d="M116.632 115.279L114.949 115.619L112.176 97.3368C112.158 97.2114 112.248 97.0689 112.39 97.0499C112.516 97.0309 112.641 97.1222 112.677 97.2476L116.632 115.279Z" fill="#30223E"/>
<path d="M121.891 114.201L120.191 114.542L117.166 96.4569C117.148 96.3144 117.239 96.189 117.382 96.151C117.507 96.1339 117.65 96.2232 117.668 96.3487L121.891 114.201Z" fill="#30223E"/>
<path d="M127.134 113.124L125.451 113.464L122.159 95.5772C122.124 95.4347 122.231 95.2903 122.374 95.2732C122.517 95.2352 122.642 95.3263 122.678 95.4688L127.134 113.124Z" fill="#30223E"/>
<path d="M132.394 112.047L130.694 112.387L127.152 94.6974C127.116 94.5529 127.223 94.4085 127.365 94.3743C127.509 94.3382 127.634 94.4275 127.67 94.5719L132.394 112.047Z" fill="#30223E"/>
<path d="M137.639 110.967L135.939 111.328L132.145 93.8174C132.109 93.654 132.198 93.5115 132.36 93.4754C132.502 93.4583 132.644 93.5286 132.68 93.6731L137.639 110.967Z" fill="#30223E"/>
<path d="M142.917 109.892L141.198 110.249L137.137 92.9377C137.101 92.7762 137.19 92.6318 137.351 92.5957C137.495 92.5596 137.639 92.6318 137.673 92.7762L142.917 109.892Z" fill="#30223E"/>
<path d="M148.159 108.812L146.442 109.172L142.129 92.0389C142.093 91.8964 142.182 91.7329 142.343 91.6987C142.487 91.6626 142.629 91.7519 142.684 91.8773L148.159 108.812Z" fill="#30223E"/>
<path d="M153.402 107.737L151.702 108.096L147.121 91.1592C147.086 91.0148 147.175 90.8532 147.336 90.8C147.478 90.7639 147.641 90.8532 147.675 90.9976L153.402 107.737Z" fill="#30223E"/>
<path d="M144.06 90.3154L110.008 96.9606L109.848 91.1762L144.06 90.3154Z" fill="#30223E"/>
<path d="M213.041 244.696C209.571 246.509 205.277 245.233 201.84 243.331C190.568 237.062 183.894 225.011 178.363 213.321C171.601 198.989 165.623 183.92 164.497 168.098C164.245 164.613 164.264 161.022 165.445 157.734C170.652 143.188 183.964 158.04 189.494 164.471C196.884 173.054 202.395 183.112 207.011 193.419C212.326 205.292 216.656 217.792 217.82 230.757C218.159 234.638 217.892 239.109 215.851 242.146C215.692 242.377 215.928 244.401 215.751 244.612C215.571 244.829 214.976 243.229 214.777 243.419C214.277 243.922 213.704 244.354 213.041 244.696ZM231.132 251.628C231.115 250.82 231.206 250.03 231.419 249.275C233.262 243.151 238.057 208.794 219.215 174.221C201.732 142.183 177.004 130.669 168.111 126.774C166.284 125.983 164.891 124.474 164.228 122.589L159.665 109.658C158.448 106.209 154.85 104.233 151.308 105.06L108.578 114.992C104.998 115.819 102.637 119.213 103.084 122.876C105.375 141.465 111.119 195.2 103.621 213.661C94.477 236.129 73.0051 247.586 90.8273 298.952C105.214 340.419 124.968 361.863 132.036 368.581C133.628 370.088 135.83 370.772 137.996 370.447L224.28 357.516L225.298 355.121L225.622 357.301L229.272 356.761C232.904 356.223 235.536 353.027 235.373 349.345L231.132 251.628Z" fill="#A9E2E4"/>
<path d="M225.62 357.301L224.278 357.516C225.709 320.269 225.154 281.046 214.775 243.419C215.169 243.043 215.527 242.611 215.849 242.146C226.461 280.147 227.052 319.729 225.62 357.301Z" fill="#30223E"/>
<path d="M139.551 347.459C137.975 343.258 136.722 338.353 135.596 332.14C142.627 330.72 149.481 329.23 156.102 327.777C170.506 324.634 184.123 321.652 199.173 319.567C199.298 320.288 199.423 320.987 199.548 321.705C200.335 325.873 201.142 330.182 201.248 335.408C177.307 342.161 158.232 345.878 139.551 347.459ZM200.871 321.454C200.712 320.539 200.532 319.623 200.371 318.707C200.318 318.348 199.977 318.095 199.62 318.15C184.284 320.252 170.453 323.269 155.816 326.465C148.998 327.955 141.948 329.5 134.7 330.937C134.342 331.009 134.109 331.368 134.164 331.727C135.363 338.57 136.741 343.885 138.475 348.411C138.566 348.681 138.816 348.843 139.104 348.843H139.157C158.213 347.262 177.629 343.49 202.107 336.575C202.393 336.487 202.607 336.216 202.59 335.912C202.535 330.325 201.697 325.817 200.871 321.454Z" fill="#30223E"/>
<path d="M109.782 157.039C109.803 159.454 110.014 161.869 110.412 164.252C110.775 166.417 111.451 168.784 113.328 169.911C114.523 170.628 115.995 170.694 117.381 170.563C119.173 170.394 121.038 169.871 122.264 168.549C123.414 167.308 123.828 165.56 124.042 163.878C124.514 160.172 124.224 156.37 123.193 152.78C122.935 151.884 122.626 150.989 122.106 150.215C120.369 147.636 116.384 146.81 113.712 148.15C110.353 149.835 109.753 153.609 109.782 157.039Z" fill="#FCEFE6"/>
<path d="M110.628 187.464C109.666 191.175 110.582 195.076 110.906 198.898C111.32 203.77 110.746 208.726 109.231 213.372C108.125 216.766 106.515 220.036 106.09 223.58C105.664 227.124 106.765 231.181 109.858 232.941C112.466 234.425 115.885 233.86 118.353 232.152C121.685 229.847 123.484 225.765 123.826 221.718C124.167 217.67 123.217 213.625 121.988 209.754C121.267 207.481 120.442 205.208 120.26 202.829C119.998 199.377 121.108 195.987 121.594 192.557C122.017 189.566 121.917 183.464 118.676 181.761C115.178 179.924 111.408 184.461 110.628 187.464Z" fill="#FCEFE6"/>
<path d="M209.708 282.617C208.848 285.019 208.797 287.7 209.56 290.133C210.089 291.811 211.206 293.523 212.93 293.832C214.159 294.053 215.428 293.485 216.333 292.62C217.73 291.282 218.387 289.295 218.413 287.356C218.442 285.217 217.741 280.755 215.753 279.402C213.218 277.673 210.535 280.305 209.708 282.617Z" fill="#FCEFE6"/>
<path d="M210.839 303.434C210.008 305.291 210.135 307.514 211.023 309.346C211.928 311.214 213.605 312.825 213.685 314.902C213.747 316.529 212.786 318.063 212.842 319.689C212.92 321.88 215.069 323.701 217.252 323.626C219.435 323.552 221.379 321.783 221.898 319.653C222.417 317.525 221.618 315.184 220.075 313.631C219.16 312.71 217.899 311.813 217.96 310.513C217.985 309.969 218.254 309.473 218.486 308.981C219.238 307.402 219.694 305.62 219.401 303.894C218.502 298.634 212.767 299.128 210.839 303.434Z" fill="#FCEFE6"/>
<path d="M369.299 280.481C369.299 280.481 354.376 344.058 322.703 367.908C322.703 367.908 319.59 368.106 314.348 367.71C314.105 367.686 314.736 366.475 314.482 366.454C314.172 366.428 312.973 367.589 312.648 367.549C299.209 366.257 274.497 361.029 252.041 341.004C252.041 341.004 272.458 269.471 305.955 241.347C305.955 241.347 340.757 243.934 363.627 272.436C363.865 272.734 363.059 275.97 363.292 276.276C363.407 276.428 364.568 273.644 364.683 273.8C366.292 275.883 367.832 278.11 369.299 280.481Z" fill="#FAB44B"/>
<path d="M364.684 273.8C356.702 308.768 339.024 341.759 314.349 367.71C313.811 367.657 313.239 367.621 312.648 367.549C337.788 341.382 355.753 307.906 363.628 272.436C363.985 272.884 364.343 273.332 364.684 273.8Z" fill="#30223E"/>
<path d="M334.048 301.629L320.681 318.144L320.331 299.642L320.308 298.957L327.609 289.257C329.555 286.634 331.496 284.008 333.429 281.378C333.605 283.708 333.788 286.038 333.955 288.367C334.334 292.371 334.682 296.377 335.08 300.381C334.735 300.797 334.392 301.213 334.048 301.629ZM308.914 333.105C308.899 332.666 308.884 332.229 308.869 331.79L308.168 314.933L312.655 309.126L319.022 300.664L319.642 319.455L308.914 333.105ZM296.638 328.178C295.375 329.878 294.114 331.581 292.857 333.285C292.81 331.83 292.758 330.376 292.707 328.923C292.503 323.218 292.202 317.519 291.941 311.816L301.818 298.102L305.889 292.303L306.426 305.31L306.917 314.519L296.638 328.178ZM286.062 318.218C283.504 321.914 280.952 325.616 278.419 329.329C278.352 327.264 278.271 325.196 278.184 323.129C277.996 319.404 277.807 315.68 277.514 311.959C277.445 311.054 277.377 310.148 277.305 309.242C278.337 307.79 279.367 306.336 280.393 304.882L289.699 291.501C289.71 291.879 289.724 292.259 289.737 292.637C289.951 298.701 290.284 304.757 290.551 310.815C290.57 311.125 290.587 311.433 290.608 311.742L286.062 318.218ZM292.687 287.202L304.724 269.346C304.815 269.207 304.908 269.068 305.001 268.928C305.103 272.208 305.211 275.486 305.326 278.763L305.803 290.268L300.726 297.321L291.844 309.979C291.484 304.181 291.179 298.378 290.763 292.584C290.706 291.793 290.647 291.005 290.591 290.216L292.687 287.202ZM316.484 277.205C317.169 276.213 317.854 275.219 318.54 274.226C318.553 275.371 318.562 276.517 318.576 277.663L318.973 298.748L311.591 308.307L308.087 312.964L307.767 305.245L306.992 290.727L316.484 277.205ZM336.189 300.546C340.167 295.398 344.124 290.23 347.986 284.987C343.957 289.658 340.014 294.395 336.092 299.151C335.837 295.518 335.553 291.887 335.292 288.255C335.025 285.468 334.78 282.678 334.523 279.888C337.13 276.333 339.72 272.762 342.276 269.167C339.637 272.398 337.026 275.651 334.432 278.919C334.275 277.239 334.114 275.56 333.936 273.882C333.429 269.095 332.9 264.31 332.224 259.539C332.347 264.358 332.618 269.163 332.912 273.967C333.039 276.078 333.19 278.184 333.349 280.291C331.155 283.064 328.97 285.844 326.789 288.628L320.246 297.099L319.602 277.637C319.539 276.08 319.475 274.526 319.409 272.97C323.265 267.375 327.099 261.766 330.854 256.099C326.963 261.207 323.144 266.366 319.346 271.541C319.115 266.241 318.856 260.939 318.519 255.641C318.453 261.317 318.473 266.991 318.524 272.666C317.563 273.979 316.603 275.29 315.643 276.605L306.888 288.763L306.352 278.716C306.138 275.105 305.917 271.497 305.686 267.888C309.327 262.387 312.947 256.873 316.463 251.284C312.769 256.255 309.168 261.289 305.589 266.34C305.283 261.625 304.955 256.912 304.584 252.202C304.664 257.217 304.794 262.231 304.948 267.244C304.59 267.75 304.23 268.253 303.872 268.759L291.583 286.44L290.441 288.134C290.1 283.567 289.733 279.003 289.279 274.44C289.318 279.413 289.457 284.381 289.623 289.346L279.547 304.297C278.759 305.487 277.974 306.674 277.19 307.864C276.991 305.509 276.77 303.157 276.487 300.806C276.41 303.539 276.412 306.266 276.444 308.993C273.526 313.42 270.633 317.867 267.807 322.359C270.739 318.41 273.612 314.424 276.463 310.42C276.472 310.95 276.478 311.478 276.487 312.006C276.537 315.739 276.69 319.465 276.845 323.191C276.974 325.795 277.12 328.396 277.288 330.998C275.408 333.764 273.538 336.535 271.69 339.324C273.589 336.828 275.469 334.317 277.341 331.801C277.398 332.655 277.445 333.508 277.514 334.361C277.792 338.082 278.093 341.8 278.542 345.515C278.65 341.776 278.608 338.044 278.544 334.313C278.527 332.981 278.485 331.651 278.445 330.319C281.279 326.498 284.093 322.661 286.899 318.817L290.714 313.521C291.022 318.674 291.31 323.828 291.676 328.978C291.804 330.77 291.935 332.561 292.069 334.353C288.671 338.965 285.291 343.592 281.97 348.265C285.409 344.054 288.794 339.803 292.162 335.537C292.457 339.399 292.777 343.262 293.162 347.119C293.131 342.944 293.027 338.775 292.897 334.606C294.419 332.674 295.937 330.741 297.454 328.805L307.017 316.423L307.839 331.839C307.886 332.655 307.937 333.47 307.986 334.285L306.981 335.562C302.554 341.286 298.143 347.022 293.847 352.85C298.577 347.37 303.189 341.797 307.784 336.208L308.079 335.841C308.535 343.347 309.018 350.853 309.609 358.354C309.486 350.479 309.24 342.61 308.969 334.743L319.71 321.477L319.715 321.684C320.015 329.017 320.334 336.351 320.802 343.68C320.891 336.335 320.829 328.997 320.747 321.656L320.721 320.229L321.44 319.34L334.854 302.277C334.975 302.121 335.097 301.964 335.218 301.808C335.25 302.118 335.275 302.429 335.307 302.741C335.814 307.528 336.344 312.312 337.022 317.086C336.899 312.265 336.628 307.459 336.337 302.655C336.293 301.952 336.236 301.251 336.189 300.546Z" fill="#30223E"/>
<path d="M195.883 69.8534H182.294L187.959 61.9807C188.226 61.6082 188.143 61.0895 187.772 60.8216C187.401 60.5517 186.884 60.6372 186.617 61.0078L181.776 67.7403V48.202C181.776 47.744 181.404 47.3715 180.948 47.3715C180.49 47.3715 180.121 47.744 180.121 48.202V68.7114L173.951 61.9255C173.644 61.5835 173.119 61.5627 172.782 61.8705C172.443 62.1803 172.421 62.7047 172.729 63.043L178.919 69.8534H165.732C165.273 69.8534 164.904 70.2278 164.904 70.6857C164.904 71.1456 165.273 71.5162 165.732 71.5162H179.059L173.091 79.8165C172.824 80.187 172.907 80.7076 173.278 80.9756C173.424 81.082 173.595 81.1333 173.761 81.1333C174.019 81.1333 174.272 81.0136 174.433 80.7875L180.121 72.8806V95.9971C180.121 96.457 180.49 96.8275 180.948 96.8275C181.404 96.8275 181.776 96.457 181.776 95.9971V72.9965L187.382 79.1647C187.544 79.3452 187.768 79.4364 187.991 79.4364C188.192 79.4364 188.391 79.3642 188.55 79.2198C188.887 78.9081 188.911 78.3836 188.605 78.0454L182.669 71.5162H195.883C196.339 71.5162 196.71 71.1456 196.71 70.6857C196.71 70.2278 196.339 69.8534 195.883 69.8534Z" fill="white"/>
<path d="M369.072 195.361H355.486L361.149 187.489C361.415 187.116 361.332 186.597 360.963 186.329C360.59 186.058 360.073 186.143 359.806 186.516L354.965 193.248V173.71C354.965 173.25 354.596 172.879 354.138 172.879C353.679 172.879 353.31 173.25 353.31 173.71V194.217L347.142 187.432C346.833 187.091 346.311 187.071 345.972 187.376C345.635 187.688 345.61 188.213 345.919 188.551L352.11 195.361H338.923C338.465 195.361 338.094 195.734 338.094 196.192C338.094 196.652 338.465 197.022 338.923 197.022H352.25L346.282 205.322C346.015 205.695 346.099 206.214 346.468 206.484C346.616 206.588 346.784 206.639 346.953 206.639C347.21 206.639 347.462 206.522 347.625 206.295L353.31 198.388V221.505C353.31 221.963 353.679 222.335 354.138 222.335C354.596 222.335 354.965 221.963 354.965 221.505V198.504L360.571 204.671C360.736 204.851 360.957 204.942 361.183 204.942C361.381 204.942 361.582 204.87 361.739 204.726C362.078 204.416 362.103 203.892 361.794 203.553L355.861 197.022H369.072C369.53 197.022 369.899 196.652 369.899 196.192C369.899 195.734 369.53 195.361 369.072 195.361Z" fill="white"/>
<path d="M87.6882 326.199H74.1016L79.7638 318.325C80.0315 317.954 79.9485 317.434 79.5767 317.166C79.2062 316.896 78.6884 316.979 78.4222 317.354L73.581 324.084V304.546C73.581 304.088 73.211 303.716 72.7532 303.716C72.2956 303.716 71.9249 304.088 71.9249 304.546V325.055L65.7561 318.27C65.4492 317.928 64.9257 317.909 64.5878 318.215C64.2504 318.524 64.2254 319.049 64.5344 319.389L70.7255 326.199H57.5373C57.0795 326.199 56.709 326.57 56.709 327.03C56.709 327.49 57.0795 327.86 57.5373 327.86H70.866L64.8968 336.161C64.6291 336.531 64.7135 337.05 65.084 337.32C65.2296 337.426 65.4006 337.477 65.5676 337.477C65.8243 337.477 66.078 337.358 66.2391 337.132L71.9249 329.225V352.341C71.9249 352.801 72.2956 353.173 72.7532 353.173C73.211 353.173 73.581 352.801 73.581 352.341V329.341L79.1869 335.509C79.3503 335.689 79.5729 335.78 79.7978 335.78C79.9974 335.78 80.1971 335.708 80.3554 335.564C80.6934 335.254 80.7178 334.728 80.4101 334.39L74.4758 327.86H87.6882C88.1452 327.86 88.5157 327.49 88.5157 327.03C88.5157 326.57 88.1452 326.199 87.6882 326.199Z" fill="white"/>
<path d="M78.1306 156.733C70.439 156.733 64.1814 163.015 64.1814 170.734C64.1814 178.455 70.439 184.733 78.1306 184.733C85.8221 184.733 92.0796 178.455 92.0796 170.734C92.0796 163.015 85.8221 156.733 78.1306 156.733ZM78.1306 186.081C69.6995 186.081 62.8398 179.198 62.8398 170.734C62.8398 162.272 69.6995 155.388 78.1306 155.388C86.5616 155.388 93.4212 162.272 93.4212 170.734C93.4212 179.198 86.5616 186.081 78.1306 186.081Z" fill="#A9E2E4"/>
<path d="M207.272 105.379C202.94 105.379 199.415 108.915 199.415 113.263C199.415 117.611 202.94 121.149 207.272 121.149C211.604 121.149 215.129 117.611 215.129 113.263C215.129 108.915 211.604 105.379 207.272 105.379ZM207.272 122.496C202.2 122.496 198.072 118.354 198.072 113.263C198.072 108.172 202.2 104.031 207.272 104.031C212.344 104.031 216.471 108.172 216.471 113.263C216.471 118.354 212.344 122.496 207.272 122.496Z" fill="#A9E2E4"/>
<path d="M223.109 33.8458C219.115 33.8458 215.862 37.1085 215.862 41.1199C215.862 45.1314 219.115 48.396 223.109 48.396C227.106 48.396 230.357 45.1314 230.357 41.1199C230.357 37.1085 227.106 33.8458 223.109 33.8458ZM223.109 49.7414C218.374 49.7414 214.52 45.8744 214.52 41.1199C214.52 36.3655 218.374 32.4985 223.109 32.4985C227.846 32.4985 231.699 36.3655 231.699 41.1199C231.699 45.8744 227.846 49.7414 223.109 49.7414Z" fill="#A9E2E4"/>
<path d="M362.604 127.387C357.6 127.387 353.528 131.473 353.528 136.495C353.528 141.52 357.6 145.605 362.604 145.605C367.608 145.605 371.679 141.52 371.679 136.495C371.679 131.473 367.608 127.387 362.604 127.387ZM362.604 146.952C356.86 146.952 352.186 142.261 352.186 136.495C352.186 130.732 356.86 126.04 362.604 126.04C368.349 126.04 373.021 130.732 373.021 136.495C373.021 142.261 368.349 146.952 362.604 146.952Z" fill="#A9E2E4"/>
<path d="M376.007 238.66C373.017 238.66 370.587 241.1 370.587 244.101C370.587 247.101 373.017 249.541 376.007 249.541C378.997 249.541 381.428 247.101 381.428 244.101C381.428 241.1 378.997 238.66 376.007 238.66ZM376.007 250.889C372.279 250.889 369.244 247.844 369.244 244.101C369.244 240.357 372.279 237.313 376.007 237.313C379.737 237.313 382.77 240.357 382.77 244.101C382.77 247.844 379.737 250.889 376.007 250.889Z" fill="#A9E2E4"/>
<path d="M70.2128 208.091C66.5519 208.091 63.5728 211.078 63.5728 214.753C63.5728 218.428 66.5519 221.418 70.2128 221.418C73.8737 221.418 76.8511 218.428 76.8511 214.753C76.8511 211.078 73.8737 208.091 70.2128 208.091ZM70.2128 222.765C65.8117 222.765 62.2305 219.17 62.2305 214.753C62.2305 210.335 65.8117 206.744 70.2128 206.744C74.6132 206.744 78.1927 210.335 78.1927 214.753C78.1927 219.17 74.6132 222.765 70.2128 222.765Z" fill="#A9E2E4"/>
<path d="M101.279 361.55C97.2822 361.55 94.031 364.813 94.031 368.824C94.031 372.835 97.2822 376.098 101.279 376.098C105.275 376.098 108.528 372.835 108.528 368.824C108.528 364.813 105.275 361.55 101.279 361.55ZM101.279 377.445C96.5419 377.445 92.6895 373.578 92.6895 368.824C92.6895 364.07 96.5419 360.202 101.279 360.202C106.015 360.202 109.869 364.07 109.869 368.824C109.869 373.578 106.015 377.445 101.279 377.445Z" fill="#A9E2E4"/>
<path d="M254.787 359.102C251.462 359.102 248.756 361.818 248.756 365.155C248.756 368.491 251.462 371.207 254.787 371.207C258.111 371.207 260.817 368.491 260.817 365.155C260.817 361.818 258.111 359.102 254.787 359.102ZM254.787 372.554C250.722 372.554 247.416 369.234 247.416 365.155C247.416 361.077 250.722 357.755 254.787 357.755C258.852 357.755 262.157 361.077 262.157 365.155C262.157 369.234 258.852 372.554 254.787 372.554Z" fill="#A9E2E4"/>
<path d="M372.962 332.202C367.621 332.202 363.276 336.563 363.276 341.922C363.276 347.283 367.621 351.644 372.962 351.644C378.301 351.644 382.644 347.283 382.644 341.922C382.644 336.563 378.301 332.202 372.962 332.202ZM372.962 352.991C366.881 352.991 361.934 348.024 361.934 341.922C361.934 335.818 366.881 330.855 372.962 330.855C379.041 330.855 383.987 335.818 383.987 341.922C383.987 348.024 379.041 352.991 372.962 352.991Z" fill="#A9E2E4"/>
</svg>
