<svg width="447" height="447" viewBox="0 0 447 447" fill="none" xmlns="http://www.w3.org/2000/svg">
<circle cx="223.5" cy="223.5" r="213.5" fill="#6365B9" stroke="#27267E" stroke-width="20"/>
<path d="M235.581 108.571L185.051 111.607L185.41 91.9609L190.652 90.9938L194.038 88.3518L191.34 84.9567L194.45 57.4931L221.116 56.4314L227.164 89.1429L233.245 90.7319L235.581 108.571Z" fill="#FCEFE6"/>
<path d="M189.221 111.362L187.398 111.465L187.516 91.8996C187.518 91.7467 187.63 91.6297 187.782 91.6332C187.916 91.6321 188.033 91.7435 188.053 91.8793L189.221 111.362Z" fill="#30223E"/>
<path d="M194.848 111.021L193.042 111.124L192.854 91.7066C192.854 91.5736 192.969 91.4389 193.12 91.4402C193.254 91.4391 193.371 91.5525 193.39 91.6882L194.848 111.021Z" fill="#30223E"/>
<path d="M200.498 110.682L198.674 110.783L198.194 91.5333C198.196 91.3825 198.309 91.2655 198.464 91.2472C198.597 91.248 198.733 91.3622 198.733 91.4952L200.498 110.682Z" fill="#30223E"/>
<path d="M206.129 110.341L204.323 110.444L203.535 91.3606C203.519 91.2071 203.652 91.0729 203.804 91.0764C203.959 91.0582 204.076 91.1715 204.092 91.3249L206.129 110.341Z" fill="#30223E"/>
<path d="M211.778 110.002L209.953 110.103L208.875 91.1872C208.859 91.0317 208.993 90.8975 209.146 90.8831C209.301 90.8669 209.418 90.9783 209.435 91.1338L211.778 110.002Z" fill="#30223E"/>
<path d="M217.41 109.658L215.582 109.781L214.215 91.0139C214.201 90.8387 214.315 90.7038 214.49 90.6904C214.641 90.6938 214.779 90.7879 214.795 90.9434L217.41 109.658Z" fill="#30223E"/>
<path d="M223.075 109.324L221.228 109.44L219.552 90.8408C219.539 90.6675 219.653 90.5307 219.826 90.517C219.982 90.5009 220.121 90.5972 220.135 90.7524L223.075 109.324Z" fill="#30223E"/>
<path d="M228.705 108.981L226.86 109.099L224.895 90.6479C224.879 90.4944 224.996 90.3377 225.169 90.326C225.324 90.3099 225.459 90.4238 225.498 90.5623L228.705 108.981Z" fill="#30223E"/>
<path d="M234.334 108.641L232.507 108.762L230.232 90.4746C230.218 90.3194 230.335 90.1647 230.511 90.1333C230.664 90.1168 230.821 90.2338 230.835 90.389L234.334 108.641Z" fill="#30223E"/>
<path d="M227.163 89.1429L190.65 90.9938L191.338 84.9567L227.163 89.1429Z" fill="#30223E"/>
<path d="M276.296 259.877C272.407 261.247 268.115 259.283 264.811 256.796C253.977 248.604 248.797 235.085 244.756 222.111C239.821 206.207 235.814 189.654 236.98 173.039C237.233 169.379 237.784 165.648 239.503 162.406C247.088 148.057 258.78 165.474 263.598 172.981C270.038 183.001 274.301 194.276 277.592 205.676C281.38 218.808 284.048 232.446 283.345 246.097C283.124 250.181 282.184 254.79 279.605 257.644C279.405 257.861 279.352 260 279.135 260.193C278.916 260.391 278.532 258.64 278.297 258.808C277.7 259.257 277.038 259.62 276.296 259.877ZM294.146 269.771C294.247 268.929 294.459 268.12 294.794 267.368C297.622 261.274 307.71 226.27 293.166 187.531C279.666 151.628 255.568 135.986 246.866 130.616C245.076 129.523 243.846 127.747 243.433 125.689L240.586 111.569C239.826 107.803 236.365 105.214 232.547 105.547L186.493 109.527C182.635 109.854 179.669 113.032 179.594 116.907C179.233 136.571 177.275 193.286 166.721 211.364C153.855 233.364 129.756 242.085 140.751 298.13C149.626 343.375 167.065 368.602 173.445 376.635C174.883 378.438 177.08 379.476 179.388 379.46L271.328 378.831L272.745 376.493L272.761 378.807L276.649 378.788C280.518 378.769 283.736 375.837 284.112 371.984L294.146 269.771Z" fill="#A9E2E4"/>
<path d="M272.757 378.807L271.325 378.831C278.33 340.322 283.555 299.465 278.293 258.807C278.76 258.475 279.197 258.079 279.602 257.643C285.051 298.724 279.81 339.961 272.757 378.807Z" fill="#30223E"/>
<path d="M184.411 355.794C183.389 351.192 182.807 345.907 182.552 339.28C190.098 338.849 197.47 338.318 204.593 337.79C220.088 336.662 234.736 335.585 250.747 335.653C250.771 336.42 250.798 337.165 250.822 337.931C251.027 342.38 251.231 346.98 250.569 352.428C224.59 355.893 204.137 356.925 184.411 355.794ZM252.24 337.867C252.21 336.891 252.158 335.912 252.125 334.936C252.123 334.555 251.805 334.241 251.423 334.245C235.111 334.153 220.234 335.236 204.489 336.384C197.155 336.921 189.57 337.48 181.795 337.897C181.411 337.919 181.115 338.257 181.119 338.639C181.357 345.931 182.009 351.661 183.148 356.624C183.203 356.918 183.44 357.123 183.74 357.165L183.796 357.173C203.913 358.36 224.729 357.322 251.293 353.769C251.604 353.72 251.868 353.47 251.895 353.151C252.664 347.335 252.456 342.525 252.24 337.867Z" fill="#30223E"/>
<path d="M181.528 153.416C181.192 155.93 181.054 158.472 181.118 161.009C181.176 163.312 181.531 165.874 183.322 167.324C184.463 168.247 185.99 168.535 187.456 168.604C189.35 168.694 191.373 168.428 192.848 167.235C194.232 166.116 194.923 164.36 195.395 162.644C196.435 158.862 196.695 154.866 196.15 150.981C196.014 150.01 195.825 149.034 195.396 148.153C193.965 145.214 189.93 143.763 186.944 144.759C183.189 146.012 182.005 149.846 181.528 153.416Z" fill="#FCEFE6"/>
<path d="M177.909 185.171C176.356 188.886 176.735 193.078 176.508 197.099C176.218 202.225 174.886 207.292 172.618 211.897C170.962 215.261 168.798 218.421 167.83 222.042C166.862 225.663 167.409 230.044 170.377 232.333C172.878 234.263 176.529 234.184 179.357 232.775C183.174 230.874 185.656 226.897 186.611 222.741C187.566 218.583 187.174 214.237 186.464 210.03C186.048 207.56 185.523 205.075 185.686 202.575C185.923 198.947 187.583 195.587 188.597 192.094C189.481 189.047 190.28 182.689 187.151 180.438C183.773 178.008 179.167 182.166 177.909 185.171Z" fill="#FCEFE6"/>
<path d="M267.205 298.804C265.953 301.174 265.503 303.953 265.939 306.595C266.242 308.418 267.154 310.364 268.908 310.942C270.157 311.354 271.565 310.951 272.637 310.187C274.293 309.004 275.272 307.035 275.587 305.024C275.933 302.804 275.862 298.062 273.988 296.36C271.599 294.186 268.411 296.523 267.205 298.804Z" fill="#FCEFE6"/>
<path d="M265.309 320.614C264.167 322.42 263.97 324.75 264.626 326.787C265.293 328.863 266.805 330.787 266.581 332.958C266.405 334.658 265.175 336.11 264.994 337.809C264.75 340.098 266.723 342.31 269.012 342.557C271.3 342.804 273.591 341.254 274.447 339.117C275.304 336.981 274.816 334.429 273.436 332.586C272.618 331.492 271.435 330.372 271.691 329.03C271.797 328.468 272.151 327.993 272.467 327.516C273.485 325.986 274.225 324.201 274.174 322.363C274.014 316.762 267.957 316.424 265.309 320.614Z" fill="#FCEFE6"/>
</svg>
