<svg width="331" height="165" viewBox="0 0 331 165" fill="none" xmlns="http://www.w3.org/2000/svg">
<path d="M110.838 25.746C110.838 34.9473 108.247 41.357 103.066 44.975C98.2867 48.325 91.7207 50 83.368 50H64.407V48.727H68.829V4.373H64.407V3.1H85.11C93.686 3.1 100.118 4.86433 104.406 8.393C108.694 11.877 110.838 17.6613 110.838 25.746ZM81.894 48.727H84.44C88.9513 48.727 92.1673 47.1413 94.088 43.97C96.0533 40.754 97.036 35.394 97.036 27.89V24.004C97.036 13.954 95.1153 7.90166 91.274 5.847C89.4427 4.86433 86.852 4.373 83.502 4.373H81.894V48.727ZM135.888 36.801V31.106C135.888 26.7733 135.642 23.6243 135.151 21.659C134.704 19.649 133.632 18.644 131.935 18.644C130.952 18.644 130.148 18.9343 129.523 19.515C128.942 20.051 128.518 20.9667 128.25 22.262C127.848 24.272 127.647 27.3317 127.647 31.441V36.667C127.647 41.5357 127.781 44.4613 128.049 45.444C128.362 46.4267 128.674 47.2307 128.987 47.856C129.478 48.928 130.439 49.464 131.868 49.464C133.61 49.464 134.749 48.459 135.285 46.449C135.687 45.0197 135.888 41.8037 135.888 36.801ZM131.734 50.67C126.151 50.67 121.93 49.2407 119.071 46.382C116.212 43.5233 114.783 39.4363 114.783 34.121C114.783 28.761 116.302 24.6517 119.339 21.793C122.421 18.8897 126.731 17.438 132.27 17.438C137.809 17.438 141.94 18.778 144.665 21.458C147.39 24.0933 148.752 28.1357 148.752 33.585C148.752 44.975 143.079 50.67 131.734 50.67ZM150.76 18.108H166.907V24.272C167.622 22.2173 168.716 20.5647 170.19 19.314C171.664 18.0633 173.897 17.438 176.89 17.438C183.813 17.438 187.275 21.1677 187.275 28.627V48.794H191.027V50H172.066V48.794H174.813V27.019C174.813 24.339 174.634 22.6193 174.277 21.86C173.92 21.056 173.272 20.654 172.334 20.654C170.905 20.654 169.632 21.592 168.515 23.468C167.443 25.344 166.907 27.622 166.907 30.302V48.794H169.788V50H150.76V48.794H154.445V19.314H150.76V18.108ZM209.533 50.67C203.771 50.67 199.439 49.196 196.535 46.248C193.677 43.2553 192.247 39.1237 192.247 33.853C192.247 28.5377 193.855 24.473 197.071 21.659C200.332 18.845 204.464 17.438 209.466 17.438C219.606 17.438 224.474 22.53 224.072 32.714H205.178V35.327C205.178 39.7043 205.737 43.0097 206.853 45.243C207.97 47.4763 209.913 48.593 212.682 48.593C217.864 48.593 221.258 45.8237 222.866 40.285L224.072 40.486C223.224 43.702 221.683 46.2033 219.449 47.99C217.261 49.7767 213.955 50.67 209.533 50.67ZM205.245 31.374H212.146V28.091C212.146 24.473 211.923 22.0163 211.476 20.721C211.074 19.381 210.226 18.711 208.93 18.711C207.68 18.711 206.742 19.4257 206.116 20.855C205.536 22.2397 205.245 24.6517 205.245 28.091V31.374Z" fill="#27267E"/>
<path d="M289.555 144.962C294.03 144.962 297.455 142.816 299.83 138.523C302.296 134.23 303.529 128.933 303.529 122.631C303.529 116.329 301.109 109.936 296.268 103.451C289.327 111.397 279.782 115.37 267.635 115.37C255.488 115.37 245.806 113.315 238.591 109.205C231.467 105.095 227.905 98.6103 227.905 89.751C227.905 83.6317 229.549 78.6997 232.837 74.955C236.125 71.2103 241.651 68.4703 249.414 66.735C241.377 59.4283 237.358 51.4823 237.358 42.897C237.358 34.2203 240.372 27.69 246.4 23.306C252.519 18.8307 260.1 16.593 269.142 16.593C278.184 16.593 284.943 18.237 289.418 21.525C293.985 24.813 296.268 29.2427 296.268 34.814C296.268 44.4953 288.916 51.8933 274.211 57.008C276.038 58.1953 279.371 60.296 284.212 63.31C294.35 69.886 301.52 75.1833 305.721 79.202C307.091 72.7173 307.867 66.05 308.05 59.2H297.227V56.46H321.065V59.2H311.475C311.292 67.7853 310.425 75.503 308.872 82.353C312.799 86.737 315.768 90.9383 317.777 94.957C319.786 98.9757 320.791 104.045 320.791 110.164C320.791 120.028 317.32 128.842 310.379 136.605C303.438 144.368 295.537 148.25 286.678 148.25C280.741 148.25 276.129 147.017 272.841 144.551C269.553 142.085 267.909 138.934 267.909 135.098C267.909 131.262 268.959 128.248 271.06 126.056C273.252 123.955 275.992 122.905 279.28 122.905C286.587 122.905 290.24 126.193 290.24 132.769C290.24 134.139 289.966 135.783 289.418 137.701H284.623C282.979 142.542 284.623 144.962 289.555 144.962ZM270.923 111.808C280.604 111.808 288.276 108.063 293.939 100.574C289.738 96.19 283.847 91.4407 276.266 86.326C263.205 77.7407 254.894 71.8953 251.332 68.79C249.962 71.7127 249.277 77.6493 249.277 86.6C249.277 95.5507 251.058 101.99 254.62 105.917C258.182 109.844 263.616 111.808 270.923 111.808ZM268.457 19.47C264.986 19.47 262.018 20.566 259.552 22.758C257.086 24.8587 255.853 28.238 255.853 32.896C255.853 37.554 256.949 41.39 259.141 44.404C261.333 47.418 265.534 51.0713 271.745 55.364C275.581 53.3547 277.956 50.9343 278.869 48.103C279.874 45.2717 280.376 41.116 280.376 35.636C280.376 24.8587 276.403 19.47 268.457 19.47Z" fill="#27267E"/>
<path d="M47.838 89.746C47.838 98.9473 45.2473 105.357 40.066 108.975C35.2867 112.325 28.7207 114 20.368 114H1.407V112.727H5.829V68.373H1.407V67.1H22.11C30.686 67.1 37.118 68.8643 41.406 72.393C45.694 75.877 47.838 81.6613 47.838 89.746ZM18.894 112.727H21.44C25.9513 112.727 29.1673 111.141 31.088 107.97C33.0533 104.754 34.036 99.394 34.036 91.89V88.004C34.036 77.954 32.1153 71.9017 28.274 69.847C26.4427 68.8643 23.852 68.373 20.502 68.373H18.894V112.727ZM89.7879 114H74.5119L73.7749 109.109C73.0602 110.896 71.9882 112.28 70.5589 113.263C69.1742 114.201 67.0972 114.67 64.3279 114.67C57.4045 114.67 53.9429 110.94 53.9429 103.481V83.314H50.1909V82.108H66.4049V105.089C66.4049 107.769 66.5835 109.533 66.9409 110.382C67.3429 111.231 68.1022 111.655 69.2189 111.655C70.3802 111.655 71.4075 110.963 72.3009 109.578C73.1942 108.193 73.6409 106.273 73.6409 103.816V83.314H70.5589V82.108H86.1029V112.794H89.7879V114ZM92.7003 114.67V102.677H93.5043C94.6656 106.563 96.2289 109.288 98.1943 110.851C100.16 112.414 102.616 113.196 105.564 113.196C110.12 113.196 112.398 111.744 112.398 108.841C112.398 107.59 111.84 106.652 110.723 106.027C108.981 105.044 106.748 104.285 104.023 103.749C100.986 102.945 98.4399 101.873 96.3853 100.533C93.9286 98.925 92.7003 96.379 92.7003 92.895C92.7003 89.411 93.7723 86.6417 95.9163 84.587C98.0603 82.4877 100.919 81.438 104.492 81.438C106.681 81.438 108.937 81.9517 111.259 82.979C112.108 83.3363 112.756 83.515 113.202 83.515C113.649 83.515 114.029 83.3587 114.341 83.046C114.654 82.7333 115.034 82.1527 115.48 81.304H116.217V91.555H115.413C113.135 85.7483 109.607 82.845 104.827 82.845C102.728 82.845 101.165 83.2247 100.137 83.984C99.1099 84.6987 98.5963 85.6143 98.5963 86.731C98.5963 87.401 98.7526 87.937 99.0653 88.339C99.3779 88.6963 99.6236 88.9643 99.8023 89.143C99.9809 89.3217 100.271 89.5227 100.673 89.746C101.075 89.9247 101.41 90.081 101.678 90.215C101.946 90.3043 102.348 90.4383 102.884 90.617C103.465 90.7957 103.889 90.9073 104.157 90.952C107.195 91.7113 109.383 92.3813 110.723 92.962C112.063 93.498 113.336 94.168 114.542 94.972C116.999 96.6693 118.227 99.4163 118.227 103.213C118.227 106.965 117.111 109.824 114.877 111.789C112.644 113.71 109.584 114.67 105.698 114.67C102.929 114.67 100.249 114.022 97.6583 112.727C97.1223 112.37 96.6979 112.191 96.3853 112.191C95.4026 112.191 94.4423 113.017 93.5043 114.67H92.7003ZM122.906 104.419V83.314H119.221V82.108H122.906V73.465L135.368 70.383V82.108H144.078V83.314H135.368V105.893C135.368 107.992 135.569 109.533 135.971 110.516C136.417 111.499 137.311 111.99 138.651 111.99C139.991 111.99 141.152 111.32 142.135 109.98C143.162 108.64 143.832 106.809 144.145 104.486L145.284 104.62C144.926 107.702 143.944 110.159 142.336 111.99C140.728 113.777 138.07 114.67 134.363 114.67C130.655 114.67 127.819 113.933 125.854 112.459C123.888 110.985 122.906 108.305 122.906 104.419ZM163.545 114.67C157.783 114.67 153.45 113.196 150.547 110.248C147.688 107.255 146.259 103.124 146.259 97.853C146.259 92.5377 147.867 88.473 151.083 85.659C154.344 82.845 158.475 81.438 163.478 81.438C173.617 81.438 178.486 86.53 178.084 96.714H159.19V99.327C159.19 103.704 159.748 107.01 160.865 109.243C161.982 111.476 163.925 112.593 166.694 112.593C171.875 112.593 175.27 109.824 176.878 104.285L178.084 104.486C177.235 107.702 175.694 110.203 173.461 111.99C171.272 113.777 167.967 114.67 163.545 114.67ZM159.257 95.374H166.158V92.091C166.158 88.473 165.935 86.0163 165.488 84.721C165.086 83.381 164.237 82.711 162.942 82.711C161.691 82.711 160.753 83.4257 160.128 84.855C159.547 86.2397 159.257 88.6517 159.257 92.091V95.374ZM194.072 100.131C194.072 104.821 194.317 107.948 194.809 109.511C195.3 111.03 196.193 111.789 197.489 111.789C198.829 111.789 199.968 111.208 200.906 110.047C201.888 108.886 202.38 107.166 202.38 104.888V90.282C202.38 88.3613 202 86.731 201.241 85.391C200.481 84.051 199.365 83.381 197.891 83.381C196.417 83.381 195.412 84.3637 194.876 86.329C194.34 88.2943 194.072 91.7337 194.072 96.647V100.131ZM203.251 114L202.514 109.31C200.995 112.883 197.913 114.67 193.268 114.67C189.426 114.67 186.434 113.285 184.29 110.516C182.19 107.747 181.141 103.615 181.141 98.121C181.141 86.999 185.563 81.438 194.407 81.438C198.337 81.438 200.928 82.5323 202.179 84.721V64.956H198.092V63.75H214.842V112.794H218.125V114H203.251Z" fill="#27267E"/>
</svg>
